<svg width="36" height="36" viewBox="0 0 36 36" fill="none" xmlns="http://www.w3.org/2000/svg">
<g clip-path="url(#clip0_21_261)">
<path fill-rule="evenodd" clip-rule="evenodd" d="M28.647 15.9574C22.8456 12.5122 13.275 12.195 7.73459 13.8762C6.84539 14.1444 5.90579 13.6439 5.63579 12.7529C5.36579 11.8637 5.868 10.9241 6.7572 10.6541C13.1166 8.7227 23.6862 9.09515 30.366 13.0605C31.1652 13.5357 31.428 14.5694 30.9528 15.3686C30.4812 16.1678 29.4444 16.4326 28.647 15.9574ZM28.458 21.0604C28.0512 21.721 27.1872 21.9277 26.5266 21.5227C21.69 18.5491 14.3136 17.6886 8.5914 19.4256C7.848 19.6488 7.06501 19.2311 6.84001 18.4895C6.61681 17.7479 7.0344 16.9646 7.776 16.7396C14.3118 14.756 22.4388 15.7174 27.9954 19.132C28.656 19.537 28.863 20.4016 28.458 21.0604ZM26.2548 25.9611C25.9308 26.4903 25.2414 26.6578 24.7122 26.3338C20.4858 23.7508 15.165 23.1678 8.8992 24.5988C8.2962 24.7374 7.6932 24.359 7.5564 23.7542C7.4178 23.1512 7.794 22.5507 8.4006 22.4121C15.2568 20.8443 21.1374 21.5189 25.8822 24.4187C26.4114 24.7427 26.5788 25.4319 26.2548 25.9611ZM18 0C8.0586 0 0 8.0586 0 18C0 27.9414 8.0586 36 18 36C27.9414 36 36 27.9414 36 18C36 8.0604 27.9414 0 18 0Z" fill="white"/>
</g>
<defs>
<clipPath id="clip0_21_261">
<rect width="36" height="36" fill="white"/>
</clipPath>
</defs>
</svg>
