<svg width="28" height="28" viewBox="0 0 28 28" fill="none" xmlns="http://www.w3.org/2000/svg">
<path d="M28 14C28 21.732 21.732 28 14 28C6.26801 28 0 21.732 0 14C0 6.26801 6.26801 0 14 0C21.732 0 28 6.26801 28 14Z" fill="white"/>
<path d="M7.38254 12.9388C7.13521 12.2707 6.9561 11.5884 7.01012 10.8635C7.04423 10.4172 7.21196 10.0362 7.5389 9.72349C7.89426 9.38803 8.22972 9.03551 8.5794 8.69436C9.03426 8.24519 9.60568 8.24803 10.0605 8.69436C10.342 8.97013 10.6206 9.25157 10.8992 9.53302C11.1693 9.80309 11.4422 10.0732 11.7123 10.3461C12.187 10.8265 12.1899 11.3866 11.7151 11.8642C11.374 12.2053 11.0357 12.5493 10.6888 12.8848C10.5978 12.9729 10.5893 13.0468 10.6377 13.1577C10.8651 13.7035 11.1949 14.1897 11.5644 14.6445C12.3093 15.56 13.1508 16.373 14.1543 17.0013C14.3704 17.1349 14.6063 17.2344 14.8309 17.3567C14.9475 17.4192 15.0242 17.3993 15.1181 17.3026C15.4564 16.953 15.8032 16.609 16.15 16.265C16.6049 15.8158 17.1735 15.813 17.6283 16.265C18.1855 16.8165 18.7399 17.3709 19.2914 17.9281C19.7548 18.3943 19.752 18.9657 19.2857 19.4348C18.9702 19.7532 18.6376 20.0546 18.3419 20.3872C17.9098 20.8705 17.3639 21.0297 16.7442 20.9956C15.8401 20.9472 15.0072 20.6459 14.2026 20.2564C12.4173 19.3893 10.8935 18.1868 9.61705 16.6687C8.67321 15.5429 7.89426 14.3205 7.38254 12.9388ZM21 13.9566C21 10.1215 17.8785 7 14.0434 7V8.32479C17.1479 8.32479 19.6752 10.8521 19.6752 13.9566H21ZM17.1905 13.9566H18.5153C18.5153 11.4918 16.5082 9.48469 14.0434 9.48469V10.8095C14.8849 10.8095 15.6753 11.1364 16.2694 11.7306C16.8636 12.3247 17.1905 13.1151 17.1905 13.9566Z" fill="black"/>
</svg>
