<svg width="36" height="36" viewBox="0 0 36 36" fill="none" xmlns="http://www.w3.org/2000/svg">
<g clip-path="url(#clip0_55_2)">
<path d="M15.6024 21.4664L21.4945 18.007L15.6024 14.5477V21.4664Z" fill="white"/>
<path d="M18 0C8.05781 0 0 8.05781 0 18C0 27.9422 8.05781 36 18 36C27.9422 36 36 27.9422 36 18C36 8.05781 27.9422 0 18 0ZM27 21.2203C27 24.3211 23.8992 24.3211 23.8992 24.3211H12.1008C9 24.3211 9 21.2203 9 21.2203V14.7867C9 11.6859 12.1008 11.6859 12.1008 11.6859H23.8992C27 11.6859 27 14.7867 27 14.7867V21.2203Z" fill="white"/>
</g>
<defs>
<clipPath id="clip0_55_2">
<rect width="36" height="36" fill="white"/>
</clipPath>
</defs>
</svg>
