<svg width="28" height="28" viewBox="0 0 28 28" fill="none" xmlns="http://www.w3.org/2000/svg">
<g clip-path="url(#clip0_44_77)">
<path fill-rule="evenodd" clip-rule="evenodd" d="M22.281 12.4113C17.7688 9.73173 10.325 9.48498 6.0158 10.7926C5.3242 11.0012 4.5934 10.6119 4.3834 9.91895C4.1734 9.22735 4.564 8.49652 5.2556 8.28652C10.2018 6.78432 18.4226 7.074 23.618 10.1582C24.2396 10.5278 24.444 11.3317 24.0744 11.9533C23.7076 12.5749 22.9012 12.7809 22.281 12.4113ZM22.134 16.3803C21.8176 16.8941 21.1456 17.0548 20.6318 16.7398C16.87 14.427 11.1328 13.7578 6.6822 15.1088C6.104 15.2824 5.495 14.9576 5.32 14.3808C5.1464 13.804 5.4712 13.1947 6.048 13.0197C11.1314 11.4769 17.4524 12.2247 21.7742 14.8805C22.288 15.1955 22.449 15.8679 22.134 16.3803ZM20.4204 20.192C20.1684 20.6036 19.6322 20.7338 19.2206 20.4818C15.9334 18.4728 11.795 18.0194 6.9216 19.1324C6.4526 19.2402 5.9836 18.9459 5.8772 18.4755C5.7694 18.0065 6.062 17.5394 6.5338 17.4316C11.8664 16.2122 16.4402 16.7369 20.1306 18.9923C20.5422 19.2443 20.6724 19.7804 20.4204 20.192ZM14 0C6.2678 0 0 6.2678 0 14C0 21.7322 6.2678 28 14 28C21.7322 28 28 21.7322 28 14C28 6.2692 21.7322 0 14 0Z" fill="white"/>
</g>
<defs>
<clipPath id="clip0_44_77">
<rect width="28" height="28" fill="white"/>
</clipPath>
</defs>
</svg>
