<svg width="28" height="28" viewBox="0 0 28 28" fill="none" xmlns="http://www.w3.org/2000/svg">
<path d="M28 14C28 21.732 21.732 28 14 28C6.26801 28 0 21.732 0 14C0 6.26801 6.26801 0 14 0C21.732 0 28 6.26801 28 14Z" fill="white"/>
<path d="M21.6546 7.66667C21.3771 7.46 21.0375 7.33333 20.6667 7.33333H7.33333C6.9625 7.33333 6.62292 7.46 6.34542 7.66667L14 15.3217L21.6546 7.66667Z" fill="black"/>
<path d="M5.66667 9.345V19C5.66667 19.9167 6.41667 20.6667 7.33333 20.6667H20.6667C21.5833 20.6667 22.3333 19.9167 22.3333 19V9.345L14 17.6783L5.66667 9.345Z" fill="black"/>
</svg>
