<svg width="28" height="28" viewBox="0 0 28 28" fill="none" xmlns="http://www.w3.org/2000/svg">
<g clip-path="url(#clip0_44_90)">
<path d="M14 16.4611C15.3563 16.4611 16.4664 15.3564 16.4664 13.9947C16.4664 13.4588 16.2914 12.9611 16.0016 12.5564C15.5531 11.9385 14.8258 11.5283 14.0055 11.5283C13.1852 11.5283 12.4578 11.933 12.0094 12.5564C11.7195 12.9611 11.5445 13.4588 11.5445 13.9947C11.5391 15.3564 12.6438 16.4611 14 16.4611Z" fill="white"/>
<path d="M19.3812 10.9867V8.91953V8.61328H19.075L17.0078 8.61875L17.0187 10.9922L19.3812 10.9867Z" fill="white"/>
<path d="M17.8281 13.9998C17.8281 16.1107 16.1109 17.8279 14 17.8279C11.8891 17.8279 10.1719 16.1107 10.1719 13.9998C10.1719 13.4912 10.2758 13.0045 10.4562 12.5615H8.36719V18.2928C8.36719 19.0311 8.96875 19.6326 9.70703 19.6326H18.293C19.0312 19.6326 19.6328 19.0311 19.6328 18.2928V12.5615H17.5437C17.7297 13.0045 17.8281 13.4912 17.8281 13.9998Z" fill="white"/>
<path d="M14 0C6.26719 0 0 6.26719 0 14C0 21.7328 6.26719 28 14 28C21.7328 28 28 21.7328 28 14C28 6.26719 21.7328 0 14 0ZM21 12.5617V18.293C21 19.7859 19.7859 21 18.293 21H9.70703C8.21406 21 7 19.7859 7 18.293V12.5617V9.70156C7 8.20859 8.21406 6.99453 9.70703 6.99453H18.293C19.7859 6.99453 21 8.20859 21 9.70156V12.5617Z" fill="white"/>
</g>
<defs>
<clipPath id="clip0_44_90">
<rect width="28" height="28" fill="white"/>
</clipPath>
</defs>
</svg>
